<?xml version="1.0" encoding="UTF-8" ?>
<!DOCTYPE svg PUBLIC "-//W3C//DTD SVG 1.1//EN" "http://www.w3.org/Graphics/SVG/1.1/DTD/svg11.dtd">
<svg width="128pt" height="75pt" viewBox="0 0 128 75" version="1.1" xmlns="http://www.w3.org/2000/svg">
<g id="#ffffffff">
<path fill="#ffffff" opacity="1.00" d=" M 81.66 2.46 C 81.84 2.45 82.21 2.43 82.40 2.42 C 81.51 6.21 84.36 9.22 83.74 12.96 C 83.22 19.28 86.17 26.46 82.00 32.03 C 78.89 27.99 79.93 22.69 80.15 17.98 C 80.45 15.10 80.02 12.19 80.36 9.33 C 82.07 7.38 81.74 4.85 81.66 2.46 Z" />
<path fill="#ffffff" opacity="1.00" d=" M 92.16 5.28 L 92.94 5.31 C 92.98 7.16 92.88 9.01 92.84 10.86 C 93.38 11.19 94.46 11.84 94.99 12.17 C 94.96 13.28 94.95 14.39 94.95 15.50 C 93.27 15.17 91.93 16.20 90.58 17.01 C 90.74 15.47 89.94 13.65 90.93 12.29 C 92.59 10.33 91.97 7.63 92.16 5.28 Z" />
<path fill="#ffffff" opacity="1.00" d=" M 65.79 11.82 C 67.52 9.83 69.13 7.75 70.79 5.70 C 72.40 7.81 74.15 9.80 76.02 11.68 C 75.28 11.67 73.80 11.65 73.06 11.64 C 73.02 14.98 72.87 18.32 72.77 21.67 C 71.39 21.57 70.01 21.51 68.62 21.48 C 68.63 18.19 68.53 14.90 68.62 11.61 C 67.91 11.66 66.50 11.76 65.79 11.82 Z" />
<path fill="#ffffff" opacity="1.00" d=" M 102.92 13.18 C 105.26 12.87 107.58 12.44 109.91 12.08 C 109.63 14.40 109.21 16.69 108.85 18.99 C 108.03 18.29 107.22 17.57 106.43 16.84 C 104.94 18.58 103.33 20.20 101.70 21.79 C 98.91 21.81 95.90 22.04 93.94 19.67 C 92.54 20.91 90.88 21.71 89.05 22.06 C 90.52 20.18 92.14 18.44 93.80 16.74 C 95.60 18.27 97.43 19.75 99.31 21.18 C 101.22 19.29 103.08 17.36 105.10 15.59 C 104.38 14.78 103.65 13.98 102.92 13.18 Z" />
<path fill="#ffffff" opacity="1.00" d=" M 53.31 14.67 C 54.83 16.36 56.38 18.04 57.94 19.70 C 57.36 19.95 56.20 20.46 55.63 20.72 C 56.00 25.59 55.66 30.47 55.73 35.35 C 54.24 33.13 52.41 31.14 51.10 28.80 C 50.90 26.10 51.09 23.40 51.27 20.70 C 50.68 20.47 49.51 20.01 48.92 19.78 C 50.46 18.15 51.94 16.45 53.31 14.67 Z" />
<path fill="#ffffff" opacity="1.00" d=" M 15.36 22.43 C 21.41 20.96 28.18 23.09 31.72 28.37 C 35.89 34.45 34.34 43.91 27.96 47.89 C 20.82 52.99 9.48 50.39 5.81 42.25 C 1.90 34.50 6.86 24.21 15.36 22.43 M 15.40 28.32 C 12.41 29.83 10.58 32.86 9.82 36.03 C 10.49 39.47 12.24 43.07 15.78 44.27 C 21.56 47.42 29.44 41.44 28.27 35.04 C 27.61 29.24 20.55 25.73 15.40 28.32 Z" />
<path fill="#ffffff" opacity="1.00" d=" M 39.16 22.74 C 41.28 22.91 43.57 22.36 45.58 23.16 C 50.12 29.28 54.40 35.59 59.07 41.62 C 59.19 35.33 59.10 29.03 59.12 22.74 C 61.01 22.76 62.90 22.77 64.80 22.77 C 64.79 31.81 64.67 40.86 64.86 49.91 C 62.75 49.82 60.65 49.81 58.54 49.78 C 54.10 43.49 49.68 37.17 44.94 31.11 C 44.88 37.37 44.81 43.63 44.99 49.90 C 43.02 49.81 41.06 49.81 39.10 49.87 C 39.28 40.83 39.17 31.78 39.16 22.74 Z" />
<path fill="#ffffff" opacity="1.00" d=" M 68.79 23.01 C 71.09 23.18 73.41 23.22 75.72 23.16 C 77.69 26.98 79.96 30.64 82.03 34.41 C 84.06 30.63 86.34 26.99 88.32 23.19 C 90.66 22.95 93.00 22.75 95.36 22.71 C 92.09 28.62 88.29 34.24 85.08 40.18 C 84.62 43.39 84.92 46.67 84.99 49.91 C 83.00 49.83 81.02 49.83 79.03 49.90 C 79.10 46.65 79.34 43.38 78.98 40.14 C 75.71 34.36 72.20 28.71 68.79 23.01 Z" />
<path fill="#ffffff" opacity="1.00" d=" M 97.66 23.15 C 99.94 23.12 102.42 22.26 104.60 23.13 C 106.58 25.76 108.39 28.52 110.25 31.23 C 111.98 28.64 113.65 25.97 115.72 23.64 C 117.80 21.95 120.74 23.07 123.20 22.76 C 119.93 27.11 116.94 31.67 113.66 36.01 C 117.04 40.56 120.25 45.24 123.57 49.83 C 121.19 49.82 118.81 49.83 116.43 49.81 C 114.53 46.69 112.20 43.86 110.24 40.78 C 108.18 43.85 106.04 46.87 103.87 49.87 C 101.50 49.79 99.13 49.82 96.76 50.00 C 100.19 45.39 103.41 40.62 106.83 36.00 C 103.73 31.74 100.66 27.47 97.66 23.15 Z" />
<path fill="#ffffff" opacity="1.00" d=" M 68.51 24.67 C 70.03 27.15 71.64 29.59 72.96 32.19 C 73.15 34.94 72.92 37.72 72.53 40.45 C 71.29 42.02 69.90 43.48 68.65 45.05 C 68.68 38.26 68.62 31.46 68.51 24.67 Z" />
<path fill="#ffffff" opacity="1.00" d=" M 61.16 56.53 C 66.42 50.21 71.25 43.47 77.09 37.66 C 77.15 40.76 74.65 42.71 72.98 45.00 C 68.93 49.73 65.38 54.88 61.19 59.51 C 57.70 56.08 54.23 52.63 50.77 49.16 C 47.31 53.23 43.50 56.98 39.74 60.77 C 36.86 57.63 33.68 54.76 30.78 51.64 C 27.57 54.46 24.83 57.81 21.57 60.56 C 20.89 60.72 19.54 61.04 18.87 61.20 C 22.70 56.92 26.81 52.89 30.81 48.78 C 33.80 51.83 36.94 54.73 39.95 57.75 C 42.43 56.26 41.33 53.63 41.00 51.35 C 41.77 51.26 43.31 51.07 44.08 50.98 C 43.12 52.29 42.13 53.63 41.79 55.26 C 45.19 52.61 47.74 49.05 50.71 45.95 C 54.10 49.58 57.72 52.97 61.16 56.53 Z" />
<path fill="#ffffff" opacity="1.00" d=" M 68.43 52.18 C 69.99 50.56 71.44 48.85 72.84 47.10 C 72.52 49.61 74.39 53.86 70.72 54.49 C 70.77 56.10 70.96 57.72 70.67 59.32 C 70.08 56.86 70.44 54.08 68.43 52.18 Z" />
<path fill="#ffffff" opacity="1.00" d=" M 51.21 50.88 C 52.66 52.42 54.13 53.94 55.66 55.40 C 55.63 57.77 55.64 60.15 55.80 62.52 C 52.70 63.22 54.33 66.90 53.97 69.14 L 53.03 69.20 C 52.62 66.94 54.38 63.09 51.09 62.59 C 51.31 58.69 51.32 54.78 51.21 50.88 Z" />
<path fill="#ffffff" opacity="1.00" d=" M 31.39 53.90 C 32.45 55.13 33.59 56.29 34.81 57.38 C 34.94 59.02 35.08 60.67 35.25 62.31 C 34.70 62.64 33.59 63.31 33.03 63.64 C 33.09 65.57 33.72 67.73 32.48 69.43 C 32.38 67.62 32.45 65.81 32.51 64.00 C 29.03 61.63 31.57 57.29 31.39 53.90 Z" />
<path fill="#ffffff" opacity="1.00" d=" M 40.75 65.21 C 40.31 61.70 42.18 58.88 45.19 57.24 C 45.10 60.26 46.28 63.79 44.26 66.41 C 43.12 68.22 43.95 70.55 43.59 72.57 C 42.45 70.82 42.92 68.69 42.93 66.74 C 42.38 66.36 41.29 65.59 40.75 65.21 Z" />
</g>
</svg>
