<?xml version="1.0" encoding="UTF-8" ?>
<!DOCTYPE svg PUBLIC "-//W3C//DTD SVG 1.1//EN" "http://www.w3.org/Graphics/SVG/1.1/DTD/svg11.dtd">
<svg width="590pt" height="163pt" viewBox="0 0 590 163" version="1.1" xmlns="http://www.w3.org/2000/svg">
<g id="#ffffffff">
<path fill="#ffffff" opacity="1.00" d=" M 57.06 22.07 C 65.64 19.48 74.74 19.82 83.56 20.69 L 83.44 21.31 C 84.82 21.40 86.19 21.49 87.57 21.57 L 87.53 22.29 C 88.83 22.40 90.12 22.51 91.42 22.63 L 91.40 23.16 C 92.58 23.50 93.75 23.87 94.91 24.27 C 110.73 30.35 123.64 43.27 129.84 59.03 C 130.20 60.02 130.55 61.01 130.90 62.00 C 131.37 63.30 131.78 64.62 132.24 65.92 C 132.49 67.30 132.74 68.67 133.04 70.04 C 134.85 79.28 134.30 88.84 132.01 97.94 C 131.46 99.68 130.85 101.40 130.29 103.13 C 129.73 104.39 129.21 105.67 128.63 106.93 C 122.48 120.76 110.94 132.02 97.10 138.08 C 94.28 139.16 91.49 140.43 88.48 140.87 L 88.53 141.26 C 77.89 143.61 66.59 144.08 56.10 140.76 C 55.53 140.66 54.39 140.47 53.82 140.37 C 52.57 139.80 51.32 139.27 50.06 138.72 C 45.72 137.05 41.57 134.88 37.74 132.23 C 33.31 129.10 29.29 125.45 25.72 121.37 C 23.62 118.66 21.65 115.86 19.73 113.02 C 18.42 110.42 17.13 107.80 15.84 105.19 C 14.75 102.15 13.77 99.07 12.76 96.00 C 12.60 94.97 12.45 93.95 12.30 92.93 C 10.16 85.71 11.24 77.97 11.69 70.56 C 11.83 70.57 12.11 70.58 12.25 70.59 C 12.48 69.03 12.77 67.49 13.30 66.00 C 13.40 65.46 13.61 64.38 13.72 63.84 C 14.11 62.85 14.49 61.85 14.84 60.85 C 15.23 59.89 15.60 58.93 15.97 57.97 C 16.59 56.62 17.20 55.26 17.80 53.89 C 18.50 52.61 19.18 51.33 19.84 50.03 C 20.18 49.54 20.85 48.56 21.18 48.08 C 23.05 45.03 25.44 42.37 27.66 39.59 C 28.62 38.60 29.59 37.62 30.57 36.65 C 32.68 35.04 34.68 33.29 36.76 31.66 C 37.94 30.90 39.09 30.11 40.27 29.35 C 41.15 28.80 42.03 28.25 42.92 27.69 C 46.20 25.99 49.61 24.53 53.09 23.28 C 54.40 22.81 55.73 22.45 57.06 22.07 M 68.97 28.24 C 66.63 28.32 64.23 28.39 62.01 29.21 C 60.82 29.36 59.62 29.49 58.43 29.62 L 58.41 30.11 C 56.50 30.50 54.66 31.14 52.82 31.78 C 48.95 33.41 45.25 35.41 41.74 37.72 C 36.79 41.40 32.37 45.72 28.76 50.74 C 26.13 54.59 23.95 58.72 22.31 63.08 C 21.31 65.83 20.35 68.62 20.18 71.57 C 20.04 71.53 19.76 71.46 19.62 71.43 C 19.11 78.39 19.07 85.38 19.70 92.34 C 19.87 92.39 20.23 92.51 20.41 92.57 C 20.47 93.54 20.58 95.48 20.63 96.45 L 21.20 96.41 C 23.66 106.48 29.78 115.45 37.47 122.31 C 37.56 112.77 37.41 103.23 37.55 93.69 C 39.97 93.48 42.40 93.30 44.80 92.85 C 48.73 92.49 52.65 92.02 56.56 91.49 C 56.63 105.37 56.51 119.26 56.62 133.15 C 58.59 133.59 60.53 134.14 62.48 134.68 C 62.59 117.98 62.54 101.29 62.51 84.60 C 54.19 86.10 45.82 87.27 37.50 88.71 C 37.47 83.61 37.55 78.50 37.44 73.40 C 43.08 71.06 49.16 70.00 54.84 67.76 C 55.42 67.66 56.59 67.45 57.17 67.34 C 59.42 66.43 61.73 65.65 64.09 65.07 C 67.67 64.30 71.28 61.69 74.99 63.10 C 78.30 64.13 81.64 65.06 84.88 66.29 C 85.55 66.39 86.88 66.58 87.55 66.67 L 87.40 67.12 C 89.65 67.63 91.84 68.35 94.06 69.00 C 98.10 70.25 102.16 71.44 106.22 72.63 C 106.72 72.94 107.73 73.55 108.23 73.86 C 108.21 78.73 108.19 83.59 108.25 88.46 C 106.35 88.42 104.46 88.35 102.57 88.30 C 102.56 88.13 102.56 87.79 102.55 87.62 C 100.68 87.49 98.82 87.34 96.96 87.13 C 92.37 85.96 87.62 85.61 83.00 84.61 C 82.31 101.26 82.88 117.98 82.71 134.65 C 84.67 134.16 86.61 133.62 88.58 133.19 C 88.79 119.29 88.58 105.39 88.69 91.49 C 94.99 92.23 101.27 93.09 107.58 93.66 C 107.76 103.15 107.55 112.64 107.69 122.13 C 114.56 116.59 119.53 109.09 122.81 100.95 C 123.20 99.94 123.57 98.92 123.94 97.90 C 124.34 96.59 124.67 95.26 125.05 93.95 C 127.57 82.95 126.53 71.24 122.21 60.83 C 120.08 56.22 117.55 51.78 114.32 47.84 C 112.12 45.02 109.61 42.46 106.80 40.25 C 102.06 36.41 96.72 33.35 90.99 31.23 C 89.73 30.79 88.45 30.41 87.18 30.00 C 81.32 28.00 75.08 28.15 68.97 28.24 Z" />
<path fill="#ffffff" opacity="1.00" d=" M 63.91 37.78 C 66.73 36.39 69.57 35.01 72.27 33.39 C 76.11 34.78 79.68 36.80 83.26 38.74 C 87.20 40.77 91.22 42.64 95.10 44.78 C 95.50 45.05 96.30 45.58 96.70 45.85 C 96.65 48.17 96.62 50.50 96.52 52.83 C 94.68 51.85 92.83 50.88 90.94 50.00 C 86.95 48.38 83.02 46.61 79.13 44.74 C 76.21 43.65 73.25 41.08 70.07 42.89 C 68.06 43.96 65.98 44.90 63.92 45.85 C 58.81 48.18 53.61 50.33 48.54 52.75 C 48.77 50.08 47.59 46.86 49.71 44.70 C 54.53 42.58 59.21 40.15 63.91 37.78 Z" />
<path fill="#ffffff" opacity="1.00" d=" M 65.08 50.02 C 67.42 49.07 69.71 48.00 72.12 47.22 C 75.92 47.74 79.33 49.79 82.90 51.13 C 84.58 51.79 86.22 52.53 87.86 53.27 C 89.26 53.83 90.65 54.42 92.06 54.97 C 94.68 55.98 97.27 57.07 99.87 58.15 C 101.54 58.81 103.20 59.53 104.86 60.22 C 109.34 60.85 107.38 65.88 107.69 68.99 C 106.47 68.63 105.26 68.26 104.06 67.83 C 103.08 67.48 102.10 67.13 101.13 66.75 C 100.11 66.43 99.10 66.09 98.09 65.74 C 93.68 64.29 89.31 62.76 84.89 61.36 C 83.59 60.84 82.28 60.34 81.00 59.78 C 80.45 59.66 79.35 59.43 78.81 59.31 C 77.83 58.87 76.85 58.42 75.87 57.99 C 71.04 56.01 66.48 59.72 61.89 60.83 C 60.86 61.18 59.83 61.53 58.80 61.86 C 55.59 63.00 52.32 63.99 49.09 65.06 C 48.06 65.43 47.05 65.83 46.04 66.24 C 45.50 66.37 44.42 66.62 43.88 66.75 C 42.89 67.17 41.89 67.59 40.90 68.00 C 39.78 68.36 38.66 68.67 37.53 68.99 C 37.49 66.53 37.49 64.07 37.48 61.61 C 39.33 60.76 41.19 59.92 43.08 59.15 C 44.34 58.61 45.62 58.10 46.88 57.55 C 50.28 56.14 53.72 54.80 57.13 53.41 C 58.38 52.84 59.65 52.30 60.90 51.74 C 62.30 51.20 63.69 50.60 65.08 50.02 Z" />
<path fill="#ffffff" opacity="1.00" d=" M 356.13 58.19 C 359.05 57.24 361.97 56.21 364.96 55.51 C 368.00 56.12 370.88 57.28 373.84 58.17 C 374.88 58.44 375.91 58.72 376.95 59.01 C 377.96 59.44 378.97 59.88 379.98 60.33 C 381.19 60.48 382.41 60.62 383.63 60.75 C 384.71 63.24 384.25 66.00 384.35 68.63 C 382.96 68.52 381.57 68.40 380.19 68.29 L 380.60 67.73 C 378.50 67.62 376.40 67.47 374.30 67.34 L 374.55 66.72 C 372.82 66.62 371.09 66.50 369.36 66.38 C 369.44 80.03 369.40 93.68 369.38 107.33 C 366.46 107.67 363.52 107.68 360.61 107.29 C 360.56 93.66 360.54 80.02 360.62 66.38 C 358.89 66.49 357.16 66.63 355.45 66.74 L 355.67 67.35 C 353.60 67.46 351.52 67.60 349.46 67.71 C 349.48 67.86 349.54 68.16 349.56 68.32 C 348.59 68.38 346.64 68.52 345.66 68.58 C 345.65 66.24 345.65 63.89 345.62 61.54 C 348.25 60.54 350.95 59.74 353.61 58.80 C 354.45 58.60 355.29 58.39 356.13 58.19 Z" />
<path fill="#ffffff" opacity="1.00" d=" M 167.55 59.69 C 172.07 59.25 176.63 59.09 181.15 59.68 C 182.17 60.10 183.20 60.48 184.26 60.82 C 188.19 62.62 191.89 65.11 194.29 68.79 C 195.19 70.52 196.06 72.27 196.96 74.01 C 198.14 78.21 198.87 82.61 198.07 86.96 C 197.67 88.61 197.36 90.29 196.94 91.94 C 195.96 93.92 194.95 95.89 194.05 97.92 C 195.30 98.92 196.55 99.92 197.72 101.03 C 197.24 103.36 194.86 104.71 193.63 106.66 C 191.29 107.05 190.27 104.45 188.73 103.22 C 187.45 103.74 186.20 104.32 184.96 104.92 C 177.96 107.74 169.75 107.46 162.90 104.35 C 158.85 101.77 155.28 98.40 153.27 93.96 C 150.50 87.03 150.44 78.94 153.31 72.02 C 155.39 67.72 158.93 64.31 162.92 61.76 C 164.45 61.24 165.97 60.68 167.52 60.21 L 167.55 59.69 M 168.02 68.06 C 164.69 69.71 162.49 72.72 160.97 76.02 C 160.02 80.33 160.23 84.78 160.71 89.13 C 161.89 91.29 162.83 93.72 164.80 95.31 C 169.38 99.48 176.42 99.44 181.88 97.20 C 181.31 96.77 180.75 96.34 180.19 95.91 C 178.88 94.58 177.54 93.28 176.20 92.00 C 177.63 90.40 178.98 88.72 180.56 87.26 C 183.54 86.57 184.99 90.24 187.00 91.81 C 187.43 91.16 187.87 90.52 188.31 89.88 C 188.47 88.37 188.61 86.86 188.72 85.35 L 189.28 85.58 C 189.28 84.54 189.29 82.45 189.29 81.40 L 188.74 81.68 C 188.62 79.80 188.46 77.91 188.16 76.04 C 186.62 73.25 184.92 70.48 182.25 68.64 C 177.76 66.77 172.66 66.87 168.02 68.06 Z" />
<path fill="#ffffff" opacity="1.00" d=" M 301.29 59.58 C 303.98 59.64 306.66 59.65 309.35 59.60 C 315.66 68.86 322.28 77.92 328.18 87.45 C 328.69 87.60 329.70 87.91 330.21 88.07 C 330.22 83.54 330.16 79.02 330.26 74.50 L 329.72 74.49 C 329.76 72.99 329.82 71.50 329.87 70.00 C 330.44 67.52 329.93 65.02 329.63 62.54 L 330.27 62.50 C 330.27 61.78 330.28 60.33 330.28 59.61 C 333.10 59.64 335.92 59.64 338.75 59.61 C 338.86 75.00 338.73 90.40 338.82 105.79 C 336.37 105.76 333.89 106.02 331.48 105.60 C 324.06 95.43 317.37 84.74 309.78 74.70 C 309.54 85.18 309.87 95.67 309.62 106.16 C 307.43 106.14 305.25 106.13 303.07 106.11 C 302.29 105.90 301.51 105.70 300.74 105.50 C 300.84 91.65 300.77 77.80 300.77 63.95 C 300.74 62.48 300.99 61.02 301.29 59.58 Z" />
<path fill="#ffffff" opacity="1.00" d=" M 503.44 59.67 C 513.47 59.74 523.50 59.73 533.54 59.68 C 533.67 62.58 533.67 65.48 533.56 68.38 C 526.48 68.29 519.41 68.35 512.34 68.33 C 512.33 71.60 512.30 74.87 512.37 78.13 C 517.98 78.16 523.60 78.05 529.21 78.21 C 529.20 80.87 529.19 83.53 529.20 86.19 C 523.56 86.22 517.93 86.18 512.30 86.22 C 512.34 90.05 512.34 93.88 512.30 97.72 C 519.69 97.75 527.08 97.71 534.47 97.74 C 534.52 100.42 534.53 103.09 534.57 105.77 C 524.24 106.81 513.79 105.96 503.41 106.23 C 503.29 90.72 503.25 75.19 503.44 59.67 Z" />
<path fill="#ffffff" opacity="1.00" d=" M 207.52 60.24 C 210.43 60.20 213.35 60.20 216.27 60.19 C 216.56 70.77 215.62 81.43 216.87 91.96 C 217.45 93.12 218.04 94.28 218.60 95.46 C 219.66 96.43 220.77 97.36 221.90 98.26 C 226.07 98.86 231.11 99.80 234.60 96.77 C 236.79 95.21 237.30 92.42 238.25 90.07 C 238.54 80.11 238.33 70.14 238.38 60.18 C 241.38 60.20 244.37 60.18 247.37 60.27 C 247.35 70.38 247.41 80.49 247.33 90.59 L 246.79 90.39 C 246.59 95.93 243.53 101.19 239.05 104.41 C 231.89 107.90 222.99 107.85 215.81 104.46 C 213.88 102.94 212.16 101.19 210.62 99.30 C 210.10 98.18 209.56 97.07 209.05 95.96 C 208.23 93.04 207.49 90.07 207.53 87.02 C 207.50 78.09 207.54 69.17 207.52 60.24 Z" />
<path fill="#ffffff" opacity="1.00" d=" M 402.98 59.69 C 407.48 59.06 412.02 59.27 416.54 59.65 L 416.50 60.13 C 417.65 60.46 418.79 60.83 419.93 61.23 C 424.38 63.21 428.00 66.60 430.34 70.86 C 430.91 72.28 431.52 73.68 432.14 75.08 C 433.45 80.32 433.43 85.72 432.12 90.96 C 431.69 91.95 431.26 92.95 430.85 93.95 C 429.11 97.67 426.51 100.95 423.07 103.23 C 422.58 103.52 421.59 104.10 421.09 104.40 C 413.83 107.69 405.11 107.70 397.85 104.38 C 393.39 101.82 389.74 98.03 387.72 93.27 C 385.68 87.71 386.05 81.66 386.66 75.87 C 387.07 74.85 387.46 73.82 387.82 72.78 C 389.96 67.68 393.89 63.41 399.07 61.34 C 400.38 60.81 401.70 60.29 402.98 59.69 M 404.09 67.94 C 398.95 70.22 395.34 75.45 395.40 81.12 C 394.82 86.99 396.46 93.77 401.80 97.03 C 406.41 99.70 412.33 99.32 417.16 97.41 C 420.16 95.44 422.01 92.36 423.46 89.17 C 423.55 87.91 423.63 86.65 423.70 85.39 L 424.43 85.42 C 424.35 82.24 423.69 79.12 423.05 76.01 C 421.26 72.16 418.14 69.18 414.20 67.60 C 410.82 67.35 407.42 67.29 404.09 67.94 Z" />
<path fill="#ffffff" opacity="1.00" d=" M 541.81 60.50 C 549.93 60.33 558.09 60.13 566.21 60.67 C 569.92 62.09 573.33 64.29 575.32 67.85 C 575.44 69.08 575.58 70.31 575.71 71.54 L 576.35 71.44 C 576.32 73.43 576.31 75.42 576.31 77.42 L 575.81 77.41 C 575.11 81.69 571.91 84.95 568.11 86.75 C 568.43 87.49 568.76 88.23 569.10 88.97 C 572.18 94.05 574.81 99.37 577.82 104.48 L 578.46 104.48 C 578.48 104.95 578.54 105.91 578.56 106.38 C 575.35 106.30 572.13 106.36 568.92 106.29 C 568.30 105.05 567.65 103.82 567.04 102.58 C 565.11 99.01 563.22 95.43 561.22 91.90 C 560.90 91.28 560.25 90.04 559.93 89.42 C 556.90 89.30 553.88 89.31 550.87 89.38 C 550.83 95.05 550.96 100.71 550.79 106.37 C 547.92 106.33 545.06 106.33 542.21 106.32 C 542.25 106.05 542.32 105.50 542.36 105.22 C 542.16 103.47 541.82 101.74 541.81 99.98 C 541.82 86.82 541.83 73.66 541.81 60.50 M 550.86 67.31 C 550.86 69.54 550.87 71.77 550.87 74.00 C 550.87 76.55 550.87 79.10 550.87 81.65 C 554.60 81.77 558.34 81.80 562.06 81.43 C 562.65 81.18 563.83 80.66 564.42 80.41 C 568.05 76.93 567.62 70.15 563.15 67.57 C 559.07 67.18 554.96 67.19 550.86 67.31 Z" />
<path fill="#ffffff" opacity="1.00" d=" M 268.81 60.34 C 271.85 60.15 274.91 60.12 277.95 60.36 C 278.25 61.25 278.84 63.02 279.13 63.91 C 280.09 66.58 281.08 69.24 282.00 71.93 C 282.37 72.92 282.77 73.91 283.18 74.89 C 283.52 75.89 283.89 76.88 284.27 77.87 C 284.77 79.30 285.33 80.71 285.84 82.13 C 286.30 83.36 286.75 84.60 287.24 85.82 C 287.72 87.26 288.23 88.69 288.73 90.13 C 290.15 93.78 291.48 97.46 292.91 101.11 C 293.54 102.79 294.12 104.48 294.67 106.18 C 292.03 106.21 289.38 106.37 286.75 106.16 C 285.49 105.22 285.38 103.45 284.72 102.14 C 284.25 100.69 283.70 99.28 283.22 97.84 C 282.86 96.98 282.52 96.13 282.19 95.27 C 276.37 95.31 270.55 95.26 264.73 95.30 C 263.90 97.58 263.09 99.86 262.16 102.10 C 261.79 103.24 261.47 104.41 261.20 105.58 C 258.31 106.54 255.25 106.20 252.27 106.25 C 252.73 104.79 253.23 103.34 253.70 101.88 C 254.24 100.65 254.76 99.40 255.28 98.16 C 256.66 94.01 258.33 89.96 259.73 85.82 C 260.09 84.86 260.43 83.89 260.75 82.91 C 261.26 81.67 261.75 80.43 262.29 79.20 C 262.77 77.73 263.32 76.29 263.82 74.83 C 265.38 70.91 266.59 66.85 268.29 62.99 C 268.42 62.33 268.68 61.00 268.81 60.34 M 271.79 75.80 C 271.37 77.25 270.84 78.66 270.35 80.08 C 269.33 82.53 268.41 85.02 267.63 87.56 C 271.54 87.62 275.45 87.60 279.35 87.58 C 278.91 86.19 278.48 84.80 278.06 83.42 C 277.61 82.33 277.15 81.24 276.70 80.16 C 275.73 77.28 274.67 74.44 273.82 71.53 C 273.09 72.92 272.41 74.35 271.79 75.80 Z" />
<path fill="#ffffff" opacity="1.00" d=" M 435.78 60.25 C 438.60 60.22 441.43 60.10 444.26 60.25 C 444.42 60.82 444.75 61.97 444.91 62.54 L 445.33 62.47 C 445.41 63.15 445.58 64.51 445.67 65.19 C 446.14 66.47 446.55 67.77 446.98 69.07 C 448.33 74.02 449.65 78.99 451.14 83.90 C 451.84 86.37 452.59 88.83 452.86 91.39 C 453.18 91.41 453.84 91.44 454.16 91.46 C 455.77 85.95 457.30 80.40 459.35 75.04 C 459.44 74.39 459.63 73.09 459.72 72.44 L 460.34 72.50 C 460.44 71.84 460.64 70.51 460.74 69.85 C 461.95 66.71 462.90 63.47 463.85 60.25 C 465.92 60.20 468.00 60.20 470.09 60.26 C 471.96 66.51 474.23 72.63 476.30 78.82 C 477.52 82.58 478.83 86.33 479.97 90.12 C 480.30 90.34 480.96 90.77 481.30 90.98 C 481.40 90.21 481.60 88.68 481.70 87.91 C 482.20 86.61 482.56 85.26 482.95 83.93 C 483.27 82.89 483.59 81.85 483.90 80.81 C 485.31 75.88 486.62 70.92 488.08 66.01 C 488.42 64.71 488.79 63.40 489.17 62.11 C 489.35 61.65 489.71 60.74 489.88 60.29 C 492.58 60.10 495.28 60.23 497.99 60.21 C 497.76 61.98 497.55 63.75 497.34 65.53 L 496.74 65.27 C 496.64 65.99 496.45 67.41 496.35 68.13 C 495.84 69.40 495.43 70.72 495.03 72.03 C 493.60 76.64 492.34 81.31 490.95 85.93 C 490.32 88.10 489.63 90.24 489.13 92.45 L 488.81 92.40 C 488.38 94.66 487.67 96.85 486.99 99.05 C 486.68 100.07 486.38 101.10 486.10 102.13 C 485.77 103.34 485.45 104.56 485.16 105.78 C 482.48 105.86 479.81 105.88 477.15 105.69 C 476.77 104.44 476.36 103.20 475.94 101.97 C 475.77 101.44 475.44 100.39 475.28 99.87 C 474.90 98.87 474.54 97.87 474.21 96.86 C 473.85 95.85 473.51 94.83 473.19 93.81 C 471.72 89.60 470.34 85.36 468.94 81.12 C 468.37 79.28 467.71 77.46 467.07 75.65 C 466.70 76.45 466.33 77.24 465.96 78.04 C 465.68 79.07 465.40 80.11 465.13 81.14 C 463.15 86.33 461.68 91.69 459.77 96.90 C 459.42 97.93 459.07 98.96 458.70 99.98 C 457.96 102.08 457.21 104.18 456.41 106.25 C 453.83 106.23 451.27 106.23 448.70 106.23 C 448.07 104.24 447.51 102.23 447.03 100.20 L 446.98 101.80 C 446.70 98.77 445.89 95.84 444.76 93.03 C 444.55 92.03 444.35 91.04 444.15 90.04 C 443.76 88.97 443.40 87.89 443.06 86.81 C 441.73 81.88 440.32 76.97 438.98 72.04 C 437.81 68.14 436.55 64.26 435.78 60.25 Z" />
</g>
</svg>
