<?xml version="1.0" encoding="UTF-8" ?>
<!DOCTYPE svg PUBLIC "-//W3C//DTD SVG 1.1//EN" "http://www.w3.org/Graphics/SVG/1.1/DTD/svg11.dtd">
<svg width="590pt" height="163pt" viewBox="0 0 590 163" version="1.1" xmlns="http://www.w3.org/2000/svg">
<g id="#ffffffff">
<path fill="#ffffff" opacity="1.00" d=" M 107.93 15.87 C 110.66 15.37 113.38 14.60 116.18 14.65 C 117.74 15.09 119.92 15.89 119.87 17.87 C 119.70 48.94 118.72 79.99 118.39 111.06 C 118.26 112.31 118.55 113.71 117.87 114.84 C 116.83 115.45 115.68 115.83 114.54 116.22 C 84.11 125.89 53.63 135.41 23.19 145.06 C 20.49 145.84 17.85 146.91 15.05 147.22 C 13.24 145.21 10.37 143.38 10.57 140.34 C 9.11 105.77 7.69 71.19 6.09 36.62 C 9.97 35.12 14.10 34.49 18.14 33.59 C 48.08 27.72 78.00 21.79 107.93 15.87 M 16.70 43.97 C 17.31 74.62 19.05 105.24 19.89 135.89 C 48.53 126.67 77.29 117.78 106.03 108.86 C 107.18 108.47 108.28 107.97 109.38 107.48 C 109.82 79.64 110.12 51.81 110.74 23.98 C 79.47 30.98 47.99 37.05 16.70 43.97 Z" />
<path fill="#ffffff" opacity="1.00" d=" M 220.07 22.92 C 225.58 22.94 231.08 22.95 236.59 22.92 C 236.63 28.05 236.56 33.19 236.65 38.32 C 231.08 38.33 225.51 38.33 219.94 38.32 C 220.30 33.19 219.73 28.05 220.07 22.92 Z" />
<path fill="#ffffff" opacity="1.00" d=" M 470.40 22.92 C 475.90 22.95 481.41 22.94 486.92 22.92 C 486.99 28.06 486.82 33.19 487.04 38.32 C 481.47 38.34 475.91 38.31 470.35 38.33 C 470.45 33.20 470.36 28.06 470.40 22.92 Z" />
<path fill="#ffffff" opacity="1.00" d=" M 136.43 108.65 C 136.53 80.37 136.47 52.09 136.46 23.81 C 150.94 23.87 165.43 23.78 179.92 23.85 C 186.82 23.99 194.23 25.61 199.18 30.77 C 206.41 37.64 208.15 49.18 204.09 58.14 C 201.95 62.81 197.68 66.09 193.01 68.00 C 196.98 69.51 200.91 72.18 202.22 76.45 C 204.94 85.01 202.96 94.14 204.44 102.88 C 204.85 105.21 207.64 106.11 208.12 108.46 C 201.39 108.87 194.64 108.55 187.91 108.66 C 185.24 100.03 186.85 90.90 185.37 82.12 C 184.74 78.19 180.80 76.05 177.13 75.81 C 169.39 75.16 161.60 75.66 153.83 75.51 C 153.90 86.55 153.76 97.59 153.92 108.63 C 148.08 108.67 142.25 108.64 136.43 108.65 M 153.83 38.44 C 153.87 46.04 153.83 53.63 153.85 61.23 C 161.21 61.18 168.58 61.29 175.95 61.18 C 180.07 60.99 185.01 60.06 187.12 56.04 C 188.95 52.08 189.09 47.07 186.82 43.26 C 184.81 39.91 180.73 38.56 177.01 38.48 C 169.28 38.38 161.55 38.47 153.83 38.44 Z" />
<path fill="#ffffff" opacity="1.00" d=" M 292.56 23.81 C 298.10 23.84 303.64 23.82 309.18 23.82 C 309.03 33.90 309.48 43.98 308.91 54.04 C 311.43 50.92 314.02 47.58 317.89 46.05 C 324.45 43.43 332.17 43.45 338.62 46.43 C 345.26 49.55 349.42 56.72 349.47 63.98 C 349.59 78.87 349.41 93.76 349.56 108.64 C 344.00 108.66 338.43 108.64 332.87 108.66 C 332.83 95.09 332.94 81.51 332.82 67.94 C 332.85 63.95 330.56 59.79 326.55 58.67 C 322.33 57.62 317.34 57.85 313.93 60.83 C 310.69 63.52 309.20 67.80 309.19 71.93 C 309.15 84.17 309.17 96.41 309.19 108.65 C 303.64 108.66 298.08 108.65 292.53 108.66 C 292.60 80.37 292.53 52.09 292.56 23.81 Z" />
<path fill="#ffffff" opacity="1.00" d=" M 254.67 28.78 C 260.22 28.77 265.77 28.77 271.32 28.78 C 271.28 34.43 271.35 40.09 271.25 45.75 C 274.70 45.79 278.15 45.77 281.61 45.77 C 281.56 49.72 281.55 53.67 281.63 57.62 C 278.16 57.65 274.69 57.62 271.23 57.63 C 271.41 69.41 271.25 81.19 271.31 92.98 C 271.19 94.45 271.86 96.09 273.44 96.45 C 276.11 97.13 278.91 96.72 281.64 96.69 C 281.52 100.80 281.61 104.91 281.56 109.02 C 274.53 109.56 267.06 110.26 260.40 107.46 C 255.99 105.59 254.60 100.36 254.69 95.98 C 254.73 83.20 254.63 70.41 254.75 57.62 C 251.86 57.62 248.97 57.65 246.08 57.60 C 246.22 53.67 246.21 49.73 246.12 45.79 C 248.99 45.77 251.87 45.78 254.75 45.75 C 254.65 40.09 254.72 34.43 254.67 28.78 Z" />
<path fill="#ffffff" opacity="1.00" d=" M 556.14 36.86 C 558.72 36.87 561.30 36.87 563.89 36.85 C 563.83 37.19 563.71 37.87 563.66 38.21 C 562.96 38.20 561.56 38.19 560.87 38.18 C 560.82 41.00 560.87 43.83 560.87 46.65 C 560.31 46.46 559.77 46.24 559.25 46.00 C 559.15 43.39 559.27 40.78 559.23 38.17 C 558.53 38.18 557.12 38.21 556.41 38.22 C 556.34 37.88 556.21 37.20 556.14 36.86 Z" />
<path fill="#ffffff" opacity="1.00" d=" M 565.33 36.43 C 566.56 36.77 568.92 39.06 566.98 39.98 L 566.40 40.36 C 566.20 42.33 566.46 44.30 566.60 46.27 L 564.98 46.39 C 565.01 43.07 565.03 39.74 565.33 36.43 Z" />
<path fill="#ffffff" opacity="1.00" d=" M 569.83 44.33 C 571.19 41.73 570.74 36.98 574.43 36.51 C 574.76 39.76 574.73 43.03 574.81 46.30 L 572.81 46.43 C 572.94 43.97 573.03 41.51 573.14 39.06 C 571.96 41.71 570.92 44.41 569.89 47.12 C 569.10 45.59 567.34 43.96 568.15 42.12 C 568.57 42.68 569.41 43.78 569.83 44.33 Z" />
<path fill="#ffffff" opacity="1.00" d=" M 380.64 55.38 C 383.79 49.23 389.85 44.49 396.95 44.29 C 404.68 43.18 412.74 47.11 416.28 54.13 C 419.20 49.82 423.24 45.91 428.46 44.71 C 436.31 43.03 445.36 45.14 450.66 51.45 C 454.10 55.44 455.12 60.86 455.11 65.98 C 455.12 80.21 455.11 94.43 455.12 108.66 C 449.55 108.65 443.99 108.65 438.43 108.65 C 438.54 95.80 438.46 82.94 438.48 70.08 C 438.42 66.12 437.56 61.32 433.84 59.15 C 427.54 55.85 418.61 60.15 418.41 67.59 C 418.07 81.27 418.34 94.97 418.29 108.66 C 412.72 108.64 407.16 108.66 401.60 108.65 C 401.70 95.45 401.63 82.25 401.64 69.05 C 401.66 65.29 400.71 60.78 396.93 59.07 C 393.33 57.69 388.91 57.60 385.56 59.70 C 382.29 61.98 381.44 66.24 381.42 69.99 C 381.44 82.88 381.38 95.77 381.46 108.65 C 375.90 108.66 370.34 108.63 364.79 108.67 C 364.81 87.70 364.79 66.73 364.80 45.76 C 370.12 45.78 375.44 45.77 380.76 45.77 C 380.72 48.97 380.65 52.18 380.64 55.38 Z" />
<path fill="#ffffff" opacity="1.00" d=" M 517.85 45.99 C 528.39 42.62 541.22 43.58 549.71 51.27 C 554.66 55.51 556.77 62.02 557.52 68.31 C 551.90 68.31 546.29 68.29 540.68 68.32 C 539.85 65.19 538.81 61.79 535.98 59.88 C 531.12 56.78 523.80 57.66 520.33 62.46 C 516.14 67.96 516.18 75.31 516.68 81.90 C 517.12 85.90 517.72 90.32 520.69 93.33 C 524.98 97.81 533.15 98.02 537.26 93.18 C 539.26 91.19 540.00 88.41 540.61 85.74 C 546.21 85.78 551.81 85.77 557.41 85.75 C 556.33 92.86 553.16 99.85 547.44 104.41 C 539.50 110.82 528.34 111.49 518.75 109.16 C 511.39 107.32 505.26 101.78 502.37 94.82 C 498.59 85.92 498.85 75.81 500.70 66.49 C 502.53 57.38 508.78 48.86 517.85 45.99 Z" />
<path fill="#ffffff" opacity="1.00" d=" M 219.93 45.79 C 225.49 45.76 231.06 45.78 236.62 45.77 C 236.61 66.73 236.55 87.69 236.66 108.64 C 231.08 108.65 225.51 108.67 219.94 108.63 C 220.10 87.68 220.17 66.73 219.93 45.79 Z" />
<path fill="#ffffff" opacity="1.00" d=" M 470.34 108.64 C 470.44 87.69 470.42 66.73 470.35 45.77 C 475.89 45.77 481.42 45.76 486.96 45.78 C 486.98 66.73 486.78 87.68 487.06 108.63 C 481.49 108.67 475.91 108.65 470.34 108.64 Z" />
<path fill="#ffffff" opacity="1.00" d=" M 58.99 57.02 C 61.09 55.02 63.30 53.15 65.61 51.40 C 77.11 56.07 88.50 61.00 99.86 66.00 C 103.09 67.37 105.76 69.70 107.98 72.37 C 99.89 75.83 91.13 77.44 82.72 79.96 C 81.57 84.23 80.48 88.61 80.75 93.07 C 80.86 96.57 82.38 99.78 83.34 103.09 C 76.44 105.86 69.33 108.26 62.08 109.92 C 59.50 108.77 57.32 106.59 55.50 104.44 C 52.75 99.49 52.50 93.68 51.68 88.21 C 44.56 90.29 37.38 92.27 30.11 93.76 C 28.07 92.41 26.35 90.63 24.46 89.07 C 35.72 78.13 47.63 67.87 58.99 57.02 Z" />
<path fill="#ffffff" opacity="1.00" d=" M 273.59 122.17 C 274.64 122.17 275.69 122.17 276.75 122.17 C 277.21 127.89 277.46 133.62 277.77 139.35 C 280.52 133.72 282.85 127.89 285.45 122.18 C 286.26 122.16 287.87 122.11 288.68 122.09 C 285.33 129.11 281.96 136.12 278.63 143.15 C 277.87 143.18 276.34 143.25 275.58 143.28 C 275.30 137.45 274.79 131.63 274.60 125.80 C 271.29 131.40 268.87 137.49 265.78 143.22 C 265.04 143.22 263.54 143.23 262.80 143.23 C 262.48 136.19 262.23 129.15 261.75 122.12 C 262.54 122.15 264.13 122.19 264.92 122.22 C 265.02 127.87 265.06 133.53 265.22 139.19 C 268.20 133.61 270.74 127.81 273.59 122.17 Z" />
<path fill="#ffffff" opacity="1.00" d=" M 469.23 129.84 C 469.59 127.25 470.12 124.70 470.69 122.15 C 471.35 122.15 472.67 122.14 473.33 122.13 C 471.69 129.00 470.51 135.97 468.81 142.81 C 468.27 143.02 467.19 143.43 466.65 143.64 C 466.67 143.07 466.70 141.92 466.72 141.35 C 464.54 143.34 460.99 144.81 458.47 142.52 C 454.73 138.65 456.75 131.78 460.69 128.76 C 463.30 126.59 467.27 127.02 469.23 129.84 M 462.41 130.41 C 459.32 132.67 457.49 138.79 461.17 141.22 C 465.73 142.46 468.49 136.80 467.95 132.96 C 468.30 130.06 464.43 128.65 462.41 130.41 Z" />
<path fill="#ffffff" opacity="1.00" d=" M 516.18 123.12 C 517.62 121.77 519.71 121.87 521.54 121.66 C 520.96 124.53 517.13 124.35 516.88 127.51 C 517.77 127.65 519.53 127.91 520.41 128.04 C 519.60 129.40 518.19 129.97 516.81 130.54 C 515.48 134.61 515.14 138.95 513.87 143.04 C 513.22 143.14 511.94 143.33 511.29 143.42 C 512.26 139.05 513.12 134.66 514.19 130.32 C 513.49 130.04 512.10 129.49 511.40 129.21 C 512.46 128.51 513.57 127.91 514.70 127.33 C 515.10 125.91 515.26 124.34 516.18 123.12 Z" />
<path fill="#ffffff" opacity="1.00" d=" M 523.27 122.30 C 524.04 122.26 525.57 122.17 526.34 122.13 C 526.21 124.17 524.98 125.27 523.03 125.37 C 523.09 124.61 523.21 123.07 523.27 122.30 Z" />
<path fill="#ffffff" opacity="1.00" d=" M 347.56 123.54 C 348.48 123.53 349.40 123.52 350.32 123.52 C 349.93 124.90 349.55 126.29 349.17 127.68 C 349.94 127.74 351.48 127.88 352.25 127.95 C 351.56 129.42 350.39 130.22 348.75 130.36 C 348.07 133.80 347.14 137.20 346.64 140.67 C 347.35 140.99 348.78 141.63 349.50 141.95 C 348.15 143.66 344.97 144.26 343.91 141.95 C 344.27 138.01 345.38 134.18 346.25 130.34 C 345.55 130.04 344.14 129.43 343.44 129.13 C 344.56 128.48 345.71 127.89 346.88 127.32 C 347.09 126.06 347.32 124.80 347.56 123.54 Z" />
<path fill="#ffffff" opacity="1.00" d=" M 425.92 127.44 C 426.31 125.30 426.52 122.73 429.46 123.29 C 429.11 124.78 428.76 126.27 428.41 127.75 C 429.17 127.79 430.69 127.86 431.44 127.90 C 430.93 129.57 429.54 130.15 427.94 130.33 C 427.25 133.79 426.31 137.20 425.82 140.70 C 426.50 140.97 427.85 141.50 428.52 141.77 C 427.53 143.93 424.12 144.12 423.03 141.97 C 423.51 137.91 424.63 133.97 425.46 129.97 L 423.03 130.08 C 423.42 128.59 424.39 127.71 425.92 127.44 Z" />
<path fill="#ffffff" opacity="1.00" d=" M 554.32 123.59 C 555.04 123.58 556.47 123.54 557.19 123.53 C 556.77 124.89 556.36 126.26 555.94 127.63 C 556.70 127.70 558.23 127.86 558.99 127.94 C 558.43 129.54 557.07 130.12 555.53 130.40 C 554.96 133.84 553.81 137.21 553.51 140.68 C 554.13 140.96 555.38 141.50 556.00 141.78 C 555.74 142.21 555.23 143.07 554.97 143.50 C 553.44 143.35 551.61 143.60 550.66 142.10 C 551.08 138.18 552.12 134.36 553.04 130.55 C 552.42 130.18 551.19 129.45 550.57 129.09 C 551.35 128.66 552.90 127.79 553.67 127.35 C 553.88 126.10 554.10 124.85 554.32 123.59 Z" />
<path fill="#ffffff" opacity="1.00" d=" M 410.39 130.30 C 412.05 128.72 414.00 127.47 416.29 127.08 C 416.14 127.79 415.85 129.21 415.70 129.91 C 413.52 130.25 411.07 130.92 410.21 133.22 C 409.14 136.42 408.89 139.82 407.89 143.04 C 407.24 143.13 405.94 143.32 405.29 143.42 C 406.53 138.31 407.32 133.10 408.73 128.04 C 409.33 127.91 410.53 127.65 411.13 127.52 L 410.39 130.30 Z" />
<path fill="#ffffff" opacity="1.00" d=" M 433.47 127.83 C 434.26 127.79 435.06 127.75 435.86 127.72 C 435.72 128.34 435.43 129.58 435.29 130.20 C 437.00 128.98 438.75 126.81 441.12 127.51 C 440.99 128.11 440.72 129.31 440.59 129.91 C 438.45 130.26 436.01 130.84 435.12 133.07 C 433.98 136.29 433.74 139.73 432.75 142.99 C 432.10 143.10 430.78 143.31 430.13 143.42 C 431.27 138.23 432.36 133.03 433.47 127.83 Z" />
<path fill="#ffffff" opacity="1.00" d=" M 530.45 130.30 C 532.14 128.67 534.14 127.39 536.53 127.14 C 536.29 128.01 536.03 128.87 535.73 129.72 C 533.66 130.46 531.07 130.90 530.25 133.27 C 529.23 136.45 528.95 139.82 527.98 143.02 C 527.32 143.13 526.02 143.34 525.36 143.45 C 526.59 138.34 527.39 133.12 528.79 128.05 C 529.39 127.91 530.59 127.63 531.19 127.50 L 530.45 130.30 Z" />
<path fill="#ffffff" opacity="1.00" d=" M 287.59 140.52 C 285.37 134.07 291.62 125.27 298.78 127.80 C 302.17 129.25 301.86 133.32 301.53 136.34 C 297.58 136.39 293.63 136.32 289.69 136.43 C 289.81 138.53 290.24 141.48 293.00 141.43 C 296.42 142.10 297.69 137.25 301.15 138.40 C 299.73 140.19 298.40 142.29 296.15 143.10 C 293.19 144.34 288.96 143.78 287.59 140.52 M 290.17 134.27 C 293.26 134.33 296.36 134.32 299.45 134.26 C 299.19 132.52 299.04 130.24 296.93 129.78 C 293.72 128.97 291.55 131.86 290.17 134.27 Z" />
<path fill="#ffffff" opacity="1.00" d=" M 313.44 128.17 C 313.98 127.97 315.07 127.56 315.62 127.36 C 315.56 127.96 315.44 129.16 315.39 129.76 C 317.82 127.32 322.42 126.11 324.66 129.47 C 327.50 134.69 323.82 142.48 317.96 143.61 C 315.99 144.15 314.41 142.72 312.88 141.75 C 312.50 144.22 312.14 146.71 311.36 149.08 C 310.71 149.20 309.41 149.44 308.76 149.56 C 310.38 142.44 311.66 135.25 313.44 128.17 M 317.42 130.36 C 315.00 132.03 313.90 135.14 313.86 137.98 C 313.81 140.43 316.65 142.32 318.85 141.12 C 322.01 139.43 323.20 135.45 322.82 132.08 C 322.35 129.68 319.23 129.03 317.42 130.36 Z" />
<path fill="#ffffff" opacity="1.00" d=" M 328.54 134.13 C 329.49 131.63 328.55 126.93 332.56 127.54 C 331.81 131.66 330.55 135.69 330.12 139.87 C 331.48 142.81 335.57 141.15 336.85 138.93 C 338.62 135.56 338.50 131.56 339.78 128.01 C 340.42 127.89 341.71 127.65 342.35 127.54 C 341.18 132.64 340.32 137.82 338.97 142.88 C 338.43 143.05 337.34 143.41 336.80 143.58 C 336.84 143.01 336.91 141.87 336.95 141.30 C 334.79 143.04 331.86 144.56 329.13 143.15 C 325.80 141.11 328.22 137.06 328.54 134.13 Z" />
<path fill="#ffffff" opacity="1.00" d=" M 359.71 127.61 C 360.43 127.70 361.88 127.89 362.60 127.98 C 363.38 132.10 363.63 136.29 363.97 140.47 C 366.61 136.45 368.42 131.94 371.07 127.94 C 371.80 127.86 373.26 127.69 373.99 127.61 C 370.22 133.98 366.70 140.50 362.79 146.78 C 361.52 149.21 358.77 149.80 356.24 149.44 C 356.84 146.20 361.49 147.38 362.02 143.80 C 361.54 138.37 360.49 133.00 359.71 127.61 Z" />
<path fill="#ffffff" opacity="1.00" d=" M 378.47 128.39 C 381.19 126.84 385.37 126.88 387.18 129.80 C 390.84 136.33 383.54 146.36 376.11 143.03 C 370.87 139.48 373.64 131.04 378.47 128.39 M 379.42 130.42 C 376.22 132.62 374.26 138.70 378.08 141.17 C 382.98 142.59 386.39 136.24 385.21 132.08 C 384.65 129.57 381.28 128.90 379.42 130.42 Z" />
<path fill="#ffffff" opacity="1.00" d=" M 392.37 128.16 C 393.04 128.01 394.37 127.70 395.04 127.55 C 394.28 131.73 392.97 135.83 392.59 140.07 C 394.41 142.82 398.40 140.96 399.56 138.52 C 401.04 135.21 401.08 131.46 402.22 128.03 C 402.87 127.91 404.17 127.67 404.82 127.55 C 403.69 132.66 402.75 137.83 401.47 142.91 C 400.89 143.07 399.72 143.40 399.14 143.56 C 399.26 142.95 399.51 141.74 399.64 141.14 C 397.94 142.30 396.24 143.84 394.03 143.68 C 392.02 143.78 389.46 142.24 389.88 139.96 C 390.54 135.99 391.40 132.06 392.37 128.16 Z" />
<path fill="#ffffff" opacity="1.00" d=" M 442.13 131.37 C 443.99 126.84 451.61 125.71 454.20 129.94 C 454.15 133.71 452.77 137.37 452.07 141.07 C 452.68 141.32 453.90 141.81 454.51 142.05 C 452.92 143.62 450.36 144.32 449.27 141.75 C 446.93 143.27 443.89 144.44 441.20 143.09 C 438.72 141.55 439.24 137.84 441.23 136.13 C 443.61 133.93 447.09 134.49 450.01 133.72 C 451.49 133.72 452.53 130.83 450.97 130.08 C 448.42 128.53 445.62 130.16 443.98 132.19 C 443.51 132.92 440.16 132.78 442.13 131.37 M 443.88 136.99 C 442.40 137.94 441.74 139.78 442.97 141.23 C 446.87 142.54 450.56 139.37 451.07 135.56 C 448.68 136.06 446.19 136.16 443.88 136.99 Z" />
<path fill="#ffffff" opacity="1.00" d=" M 473.64 140.53 C 471.40 134.09 477.67 125.27 484.82 127.80 C 488.22 129.23 487.86 133.32 487.60 136.33 C 483.65 136.40 479.71 136.31 475.77 136.44 C 475.80 138.53 476.30 141.28 478.90 141.46 C 482.39 142.13 483.69 137.29 487.21 138.38 C 485.61 140.56 483.77 143.01 480.92 143.49 C 478.20 144.19 474.80 143.31 473.64 140.53 M 476.19 134.28 C 479.29 134.32 482.39 134.33 485.49 134.25 C 485.25 132.43 485.04 130.19 482.85 129.76 C 479.67 129.02 477.59 131.93 476.19 134.28 Z" />
<path fill="#ffffff" opacity="1.00" d=" M 490.60 132.96 C 490.45 126.90 501.33 124.95 502.72 131.02 C 503.03 134.03 499.67 131.63 499.30 130.37 C 497.21 128.44 494.16 130.22 492.66 132.11 C 495.07 134.80 500.06 133.68 501.60 137.19 C 503.02 144.76 488.08 146.46 488.60 138.34 C 489.18 138.32 490.34 138.27 490.93 138.25 C 491.62 141.98 496.54 142.37 498.81 139.86 C 499.73 135.00 490.96 137.78 490.60 132.96 Z" />
<path fill="#ffffff" opacity="1.00" d=" M 522.34 128.01 C 522.99 127.91 524.29 127.70 524.94 127.60 C 523.86 132.80 522.69 137.98 521.64 143.19 C 520.97 143.21 519.63 143.23 518.96 143.25 C 520.20 138.19 521.05 133.05 522.34 128.01 Z" />
<path fill="#ffffff" opacity="1.00" d=" M 536.65 132.97 C 536.44 126.23 549.40 124.96 548.85 132.51 C 546.11 132.92 545.75 129.12 543.09 129.60 C 541.14 129.34 539.96 130.97 538.70 132.12 C 541.15 134.79 546.07 133.68 547.65 137.19 C 548.58 142.29 542.06 144.69 538.02 143.34 C 535.31 143.11 532.78 137.89 536.91 138.00 C 537.13 142.55 545.21 142.66 545.06 138.12 C 542.64 135.77 537.44 137.01 536.65 132.97 Z" />
<path fill="#ffffff" opacity="1.00" d=" M 559.10 140.15 C 559.89 140.14 561.47 140.12 562.25 140.10 C 561.99 141.15 561.73 142.19 561.47 143.24 C 560.42 143.23 559.37 143.22 558.33 143.22 C 558.59 142.19 558.84 141.17 559.10 140.15 Z" />
</g>
</svg>
